<svg xmlns="http://www.w3.org/2000/svg" xmlns:xlink="http://www.w3.org/1999/xlink" viewBox="0 0 170.97 63.82"><defs><style>.cls-1{fill:url(#linear-gradient);}.cls-2{fill:#515151;}</style><linearGradient id="linear-gradient" y1="31.91" x2="40.61" y2="31.91" gradientUnits="userSpaceOnUse"><stop offset="0" stop-color="#599146"/><stop offset="0.3" stop-color="#6da44b"/><stop offset="1" stop-color="#99cd55"/></linearGradient></defs><title>valerian-games-logo-horizontal </title><g id="Layer_2" data-name="Layer 2"><g id="Layer_1-2" data-name="Layer 1"><path class="cls-1" d="M31.63,50.86s4.43-8.36-.49-17A15.77,15.77,0,0,1,29,38.71,15.9,15.9,0,0,0,24.15,26C18.6,20.42,8.41,11.52,11.4,0c0,0-9.56,9.45-8.47,19.13A5.13,5.13,0,0,1,.8,16.29S-3.83,37.64,9.19,47A23.58,23.58,0,0,1,4,46.37s11.15,14.24,25.58,7.17c0,0-16.6-7-20.06-29.31,0,0,4.47,19.4,21,28a21.27,21.27,0,0,1,8.08,11.57l2-.61S40.12,57.43,31.63,50.86Z"/><path class="cls-2" d="M48.38,15.37q0-.43.3-.54a2.05,2.05,0,0,1,.61-.1,1.77,1.77,0,0,1,1.39.88,10.93,10.93,0,0,1,1.17,2c.36.79.68,1.57,1,2.35a18.9,18.9,0,0,0,.73,1.81c.08.15.24.49.48,1s.51,1.1.81,1.79.62,1.41,1,2.16.65,1.48,1,2.17.58,1.29.79,1.8.36.86.44,1a2.88,2.88,0,0,0,.5-1.12c.17-.58.36-1.3.55-2.16s.39-1.8.58-2.82.38-2.05.58-3.1.4-2.05.61-3,.43-1.82.64-2.56a11,11,0,0,1,.61-1.73c.2-.41.41-.58.62-.5.4-.1.67.09.83.58a6.26,6.26,0,0,1,.2,2.07,26.4,26.4,0,0,1-.32,3.15c-.18,1.22-.43,2.47-.73,3.76s-.65,2.57-1,3.87a32.12,32.12,0,0,1-1.26,3.54A21.14,21.14,0,0,1,59,34.4a3.63,3.63,0,0,1-1.31,1.43l-.28,0-.23,0c-.14-.27-.37-.72-.72-1.37s-.7-1.34-1.07-2.07-.72-1.41-1-2-.53-1.09-.64-1.35L53,27.37c-.34-.72-.7-1.52-1.1-2.41s-.8-1.82-1.21-2.8-.79-1.91-1.15-2.8-.64-1.68-.85-2.38A5.79,5.79,0,0,1,48.38,15.37Z"/><path class="cls-2" d="M65.54,29.07a4.94,4.94,0,0,1,.4-1.54,5.81,5.81,0,0,1,1.11-1.71A7.54,7.54,0,0,1,69,24.33a8.38,8.38,0,0,1,2.72-.94,12.76,12.76,0,0,1,3.57,0,18.5,18.5,0,0,1,4.47,1.2v-.4l0-.36a4.35,4.35,0,0,0-.59-2.1,7.66,7.66,0,0,0-1.53-1.93,8.93,8.93,0,0,0-2-1.39,4.56,4.56,0,0,0-2.07-.54,1.85,1.85,0,0,0-.69.12,3.55,3.55,0,0,0-.58.3c-.18.12-.36.23-.53.32a1.35,1.35,0,0,1-.62.14s-.08,0-.08,0a.6.6,0,0,0-.08-.08,1.54,1.54,0,0,0-.22-.2c-.09-.08-.14-.13-.14-.16A2.72,2.72,0,0,1,70.8,17a2.26,2.26,0,0,1,.72-.84,3.77,3.77,0,0,1,1-.49,4,4,0,0,1,1.21-.18,7.85,7.85,0,0,1,3,1,11.89,11.89,0,0,1,2.66,2.05,13.61,13.61,0,0,1,2.13,2.84,20.55,20.55,0,0,1,1.53,3.34,15.44,15.44,0,0,1,.81,3.47,13.57,13.57,0,0,1,0,3.42l-.24,0-.43,0a1.89,1.89,0,0,1-.4-.06l-.2,0a11.59,11.59,0,0,0-1.87-3,10.61,10.61,0,0,0-2-1.81,7.34,7.34,0,0,0-1.89-.91c-.58-.17-1.06-.3-1.43-.38s-.87,0-1.41.08a13.52,13.52,0,0,0-1.69.28,12.72,12.72,0,0,0-1.77.54A7.11,7.11,0,0,0,69,27a3.88,3.88,0,0,0-1.12,1.13,2.78,2.78,0,0,0-.41,1.53,2.06,2.06,0,0,0,.75,1.61,6,6,0,0,0,1.83,1.07,9.89,9.89,0,0,0,2.18.58,14.38,14.38,0,0,0,1.79.16A19.82,19.82,0,0,0,76.23,33c.71-.08,1.42-.17,2.12-.28s1.4-.2,2.09-.28a17.66,17.66,0,0,1,2.06-.12h.28l.42,0a2.75,2.75,0,0,0,.39,0h.26a.5.5,0,0,1,.36.36,2.59,2.59,0,0,1,0,.48c0,.16-.17.33-.5.51a8.21,8.21,0,0,1-1.29.56c-.53.19-1.12.38-1.77.58s-1.27.36-1.86.49-1.15.25-1.67.34a7.71,7.71,0,0,1-1.09.14,23.47,23.47,0,0,1-3.54-.28,12,12,0,0,1-3.42-1,7,7,0,0,1-2.56-2A5.39,5.39,0,0,1,65.54,29.07Z"/><path class="cls-2" d="M87,35.47a56.37,56.37,0,0,1-.5-5.62c-.06-1.87-.1-3.74-.1-5.62s0-3.75.08-5.6.07-3.71,0-5.56a.44.44,0,0,1,.24-.44,1.25,1.25,0,0,1,.56-.12.89.89,0,0,1,.63.26,2.19,2.19,0,0,1,.48.63,4.27,4.27,0,0,1,.3.76,2.82,2.82,0,0,1,.1.61c.16,3.79.26,7,.32,9.48s0,4.57,0,6.12a31.61,31.61,0,0,1-.26,3.43,3.88,3.88,0,0,1-.46,1.51.61.61,0,0,1-.65.32Z"/><path class="cls-2" d="M91,25.14a12.7,12.7,0,0,1,.62-3.95,10,10,0,0,1,1.79-3.32,8.75,8.75,0,0,1,2.86-2.28,8.53,8.53,0,0,1,3.91-.86,6.11,6.11,0,0,1,2.28.72,5.19,5.19,0,0,1,1.59,1.37,5.34,5.34,0,0,1,.9,1.89,9.82,9.82,0,0,1,.23,2.22,4.25,4.25,0,0,1-.83,2.58,7.2,7.2,0,0,1-2.1,1.93,11.06,11.06,0,0,1-2.75,1.19,10,10,0,0,1-2.74.42h-1a2.28,2.28,0,0,1-.89-.16,1.41,1.41,0,0,1-.64-.48,1.56,1.56,0,0,1-.24-.95.9.9,0,0,1,.06-.34c0-.09.15-.16.34-.2a3.47,3.47,0,0,1,.83,0l1.51.24a5.24,5.24,0,0,0,1.61-.37,16.2,16.2,0,0,0,2.15-1,8.43,8.43,0,0,0,1.88-1.37,2.2,2.2,0,0,0,.8-1.53,5,5,0,0,0-.26-1.57,4.11,4.11,0,0,0-.77-1.37A4,4,0,0,0,101,17a2.79,2.79,0,0,0-1.56-.28,6.13,6.13,0,0,0-2.53.76,6.45,6.45,0,0,0-1.92,1.64,8.23,8.23,0,0,0-1.24,2.25A7.68,7.68,0,0,0,93.27,24c0,.69,0,1.38,0,2.07a8.58,8.58,0,0,0,.3,2A6.84,6.84,0,0,0,94.44,30a5.17,5.17,0,0,0,1.67,1.61,10.14,10.14,0,0,0,2.76,1.15,19.78,19.78,0,0,0,4.13.58l7.11-.48a5,5,0,0,1-1.61,1.43,10.18,10.18,0,0,1-2.06.89,14.43,14.43,0,0,1-2.17.5,13.25,13.25,0,0,1-2,.16A12.13,12.13,0,0,1,97.92,35a11.17,11.17,0,0,1-3.58-2.12,9.85,9.85,0,0,1-2.44-3.34A10.53,10.53,0,0,1,91,25.14Z"/><path class="cls-2" d="M115.59,35.79a22.28,22.28,0,0,1-1.51-3.46A38.44,38.44,0,0,1,113,28.56q-.44-1.9-.69-3.72c-.18-1.2-.29-2.29-.34-3.27,0-.19,0-.39,0-.62a3.17,3.17,0,0,1,0-.69,2.48,2.48,0,0,1,.12-.68,1.22,1.22,0,0,1,.34-.55h.07s0,0,0,0,0,0,0,0,0,0,0,0,0,0,.08,0h.08l.4.15a1.56,1.56,0,0,1,.4.2q.7-.24,1.47-.57c.5-.23,1-.44,1.53-.64a14.32,14.32,0,0,1,1.57-.5,6.42,6.42,0,0,1,1.54-.19c.38,0,.7,0,1,0a8,8,0,0,1,.83.14l.9.24,1.11.34c.21.16.4.31.57.46a2.78,2.78,0,0,1,.48.49,2,2,0,0,1,.34.68,3.63,3.63,0,0,1,.12,1,4.37,4.37,0,0,1-1.49-.1c-.57-.12-1.17-.27-1.79-.45a18.77,18.77,0,0,0-1.93-.48,7.83,7.83,0,0,0-1.9-.16,3.6,3.6,0,0,0-1.71.52,3.51,3.51,0,0,0-1.47,1.43,8,8,0,0,0-.24,2.26,12,12,0,0,0,.28,2.17,18.46,18.46,0,0,0,.61,2.1c.26.7.49,1.41.72,2.11s.43,1.39.62,2.08a11.48,11.48,0,0,1,.35,2.11,1.28,1.28,0,0,1-.43.85A1.35,1.35,0,0,1,115.59,35.79Z"/><path class="cls-2" d="M125.8,12.07c0-.32.09-.52.28-.61a1.52,1.52,0,0,1,.72-.14,1,1,0,0,1,.73.34,3.6,3.6,0,0,1,.76.85,2.1,2.1,0,0,1,.33.87c0,.32-.17.51-.59.56h-.2a5.34,5.34,0,0,1-1-.08,1.32,1.32,0,0,1-.62-.26,1,1,0,0,1-.32-.53A4.22,4.22,0,0,1,125.8,12.07Zm2,10v-.59c0-.29,0-.6,0-.92s0-.62,0-.91V19c-.11-.83.13-1.24.71-1.24a1.16,1.16,0,0,1,.68.2,1.83,1.83,0,0,1,.51.6,20.17,20.17,0,0,0,.18,4c.2,1.28.43,2.56.68,3.81s.49,2.53.71,3.8a22.22,22.22,0,0,1,.34,4,2.08,2.08,0,0,1-.34,1.11,1.1,1.1,0,0,1-1,.56c-.34,0-.64-.3-.89-.9a11.71,11.71,0,0,1-.66-2.26c-.18-.91-.34-1.93-.47-3s-.24-2.18-.3-3.2-.12-1.93-.14-2.74S127.83,22.34,127.83,22Z"/><path class="cls-2" d="M133.19,29.07a4.94,4.94,0,0,1,.4-1.54,5.81,5.81,0,0,1,1.11-1.71,7.54,7.54,0,0,1,1.91-1.49,8.47,8.47,0,0,1,2.72-.94,12.77,12.77,0,0,1,3.57,0,18.5,18.5,0,0,1,4.47,1.2v-.4l0-.36a4.24,4.24,0,0,0-.59-2.1,7.66,7.66,0,0,0-1.53-1.93,8.71,8.71,0,0,0-2-1.39,4.56,4.56,0,0,0-2.06-.54,1.86,1.86,0,0,0-.7.12,3.1,3.1,0,0,0-.57.3c-.19.12-.37.23-.54.32a1.32,1.32,0,0,1-.62.14c-.05,0-.08,0-.08,0l-.07-.08-.22-.2c-.1-.08-.14-.13-.14-.16a2.6,2.6,0,0,1,.26-1.23,2.24,2.24,0,0,1,.71-.84,3.91,3.91,0,0,1,1-.49,4.07,4.07,0,0,1,1.21-.18,7.8,7.8,0,0,1,3,1,12.18,12.18,0,0,1,2.67,2.05,13.92,13.92,0,0,1,2.12,2.84,20.55,20.55,0,0,1,1.53,3.34,15.44,15.44,0,0,1,.81,3.47,13.12,13.12,0,0,1,0,3.42l-.23,0-.44,0a2,2,0,0,1-.4-.06l-.2,0a11.58,11.58,0,0,0-1.86-3,10.36,10.36,0,0,0-2.05-1.81,7,7,0,0,0-1.89-.91c-.58-.17-1.06-.3-1.43-.38s-.86,0-1.41.08a13.83,13.83,0,0,0-1.69.28,12.21,12.21,0,0,0-1.76.54,7,7,0,0,0-1.59.81,3.73,3.73,0,0,0-1.11,1.13,2.79,2.79,0,0,0-.42,1.53,2.06,2.06,0,0,0,.75,1.61,6.3,6.3,0,0,0,1.83,1.07,10,10,0,0,0,2.19.58,14.25,14.25,0,0,0,1.78.16,19.82,19.82,0,0,0,2.19-.12c.71-.08,1.42-.17,2.12-.28s1.4-.2,2.09-.28a17.92,17.92,0,0,1,2.06-.12h.28l.42,0a2.82,2.82,0,0,0,.4,0h.26c.21.08.33.2.35.36a2.59,2.59,0,0,1,0,.48c0,.16-.16.33-.49.51a8.82,8.82,0,0,1-1.3.56c-.53.19-1.11.38-1.76.58s-1.27.36-1.87.49-1.15.25-1.67.34a7.55,7.55,0,0,1-1.09.14,23.57,23.57,0,0,1-3.54-.28,11.87,11.87,0,0,1-3.41-1,6.9,6.9,0,0,1-2.57-2A5.39,5.39,0,0,1,133.19,29.07Z"/><path class="cls-2" d="M154.17,20.3a.43.43,0,0,1,.26-.46,1.48,1.48,0,0,1,.57-.1.43.43,0,0,1,.34.12.82.82,0,0,1,.14.28.94.94,0,0,0,.12.3.29.29,0,0,0,.28.13,2.93,2.93,0,0,0,1.35-.43l1.72-1a21.54,21.54,0,0,1,2-.95,5.45,5.45,0,0,1,2.09-.44,4.69,4.69,0,0,1,2.48.7,7.49,7.49,0,0,1,2,1.85,11.72,11.72,0,0,1,1.53,2.58,21.76,21.76,0,0,1,1.08,2.92,20.16,20.16,0,0,1,.63,2.9,18.21,18.21,0,0,1,.2,2.44c0,.24,0,.6-.06,1.07a11.44,11.44,0,0,1-.2,1.43,3.77,3.77,0,0,1-.45,1.25.94.94,0,0,1-.8.54l-.28,0a1.8,1.8,0,0,1-.39-.08,1.2,1.2,0,0,1-.34-.14.24.24,0,0,1-.14-.24,23,23,0,0,0,0-5.74,20.34,20.34,0,0,0-1.15-4.7,9.58,9.58,0,0,0-1.95-3.22,3.39,3.39,0,0,0-2.46-1.19,6.75,6.75,0,0,0-2.31.39,5.41,5.41,0,0,0-1.86,1.16,5.32,5.32,0,0,0-1.25,1.82,5.87,5.87,0,0,0-.46,2.35,13.28,13.28,0,0,0,.24,2.52c.16.83.33,1.67.53,2.5s.38,1.68.54,2.52a13.76,13.76,0,0,1,.24,2.55,2.34,2.34,0,0,1-1.87-.92,6.87,6.87,0,0,1-1.21-2.34,20.24,20.24,0,0,1-.72-3.22c-.17-1.19-.29-2.36-.35-3.51s-.1-2.24-.1-3.26Z"/><path class="cls-2" d="M137.91,49.9a.41.41,0,0,1,0-.29.46.46,0,0,1,.14-.21.53.53,0,0,1,.21-.11.3.3,0,0,1,.19,0,.27.27,0,0,1,.09.2.88.88,0,0,1-.07.38.78.78,0,0,0,.21.51,2.32,2.32,0,0,0,.56.44,5.36,5.36,0,0,0,.76.37c.27.11.54.2.8.28a6.24,6.24,0,0,0,.69.17,2.28,2.28,0,0,0,.42.06.82.82,0,0,0,.5-.15,1.36,1.36,0,0,0,.35-.4,1.88,1.88,0,0,0,.23-.56,4.29,4.29,0,0,0,.14-.62c0-.2.05-.41.06-.6s0-.36,0-.49,0-.18,0-.35,0-.36-.05-.58,0-.44-.08-.68-.07-.45-.11-.65a4.66,4.66,0,0,0-.12-.5c0-.12-.09-.18-.14-.18a.63.63,0,0,0-.27.07l-.33.15-.35.15a.83.83,0,0,1-.34.07,1.64,1.64,0,0,1-.64-.14,1.7,1.7,0,0,1-.54-.36,1.64,1.64,0,0,1-.37-.53,1.38,1.38,0,0,1-.14-.63,2.88,2.88,0,0,1,.2-1.06,3.52,3.52,0,0,1,.56-1,3,3,0,0,1,.85-.73,2,2,0,0,1,1-.28,1.2,1.2,0,0,1,.69.53,3.36,3.36,0,0,1,.41,1,8.51,8.51,0,0,1,.21,1.35c0,.5.07,1,.09,1.52s0,1,0,1.52a13.47,13.47,0,0,0,.09,1.35c0,.18,0,.39,0,.64a6.89,6.89,0,0,1-.1.76,7,7,0,0,1-.19.76,2.69,2.69,0,0,1-.33.68,1.57,1.57,0,0,1-.48.48,1.24,1.24,0,0,1-.67.18,4.32,4.32,0,0,1-.73-.07,5.49,5.49,0,0,1-.89-.22,7.07,7.07,0,0,1-.92-.37,4.74,4.74,0,0,1-.82-.51,2.36,2.36,0,0,1-.58-.65A1.45,1.45,0,0,1,137.91,49.9Zm2.46-5.35a1.09,1.09,0,0,0,.07.4.92.92,0,0,0,.19.35.89.89,0,0,0,.3.24.9.9,0,0,0,.4.09,1.45,1.45,0,0,0,.91-.24,1.17,1.17,0,0,0,.43-.58,2.36,2.36,0,0,0,.12-.75c0-.28,0-.52,0-.74s0-.22,0-.33a1.58,1.58,0,0,0-.09-.31.7.7,0,0,0-.2-.22.57.57,0,0,0-.31-.08,1.22,1.22,0,0,0-.71.22,1.92,1.92,0,0,0-.56.54,2.72,2.72,0,0,0-.36.7A2.38,2.38,0,0,0,140.37,44.55Z"/><path class="cls-2" d="M144.1,44.66a1.51,1.51,0,0,1,.12-.45,1.84,1.84,0,0,1,.33-.51,2.14,2.14,0,0,1,.56-.44,2.51,2.51,0,0,1,.8-.27A3.39,3.39,0,0,1,147,43a5,5,0,0,1,1.31.35v-.22a1.32,1.32,0,0,0-.17-.62,2,2,0,0,0-.46-.57,2.32,2.32,0,0,0-.59-.41,1.29,1.29,0,0,0-.61-.16.64.64,0,0,0-.2,0l-.17.09-.16.1a.48.48,0,0,1-.18,0s0,0,0,0l0,0a.33.33,0,0,1-.06-.06.12.12,0,0,1,0,0,.84.84,0,0,1,.07-.37.61.61,0,0,1,.21-.24,1.11,1.11,0,0,1,.31-.15,1,1,0,0,1,.36-.05,2.21,2.21,0,0,1,.89.28,3.55,3.55,0,0,1,.79.61,3.81,3.81,0,0,1,.62.84,6.75,6.75,0,0,1,.46,1,4.66,4.66,0,0,1,.24,1,4.2,4.2,0,0,1,0,1h-.2l-.12,0h-.06a3.23,3.23,0,0,0-.55-.89,2.92,2.92,0,0,0-.6-.54,2.18,2.18,0,0,0-.56-.27l-.42-.11-.42,0a2.94,2.94,0,0,0-.49.08,3.56,3.56,0,0,0-.53.16,1.67,1.67,0,0,0-.46.24,1,1,0,0,0-.33.33.85.85,0,0,0-.13.45.62.62,0,0,0,.23.48,2,2,0,0,0,.54.31,2.88,2.88,0,0,0,.64.17,4.34,4.34,0,0,0,.53.05,4.49,4.49,0,0,0,.64,0l.63-.08.61-.08c.21,0,.41,0,.61,0h.4c.06,0,.1,0,.11.1a.71.71,0,0,1,0,.14q0,.08-.15.15a2,2,0,0,1-.38.17l-.52.17a4,4,0,0,1-.55.14c-.18,0-.34.08-.49.1l-.32,0a6.57,6.57,0,0,1-1.05-.09,3.38,3.38,0,0,1-1-.3,2,2,0,0,1-.75-.6A1.59,1.59,0,0,1,144.1,44.66Z"/><path class="cls-2" d="M157.81,46.24a.38.38,0,0,1,0-.1v-.29s0-.09,0-.2,0-.23,0-.35,0-.25,0-.36,0-.19,0-.22a6.16,6.16,0,0,0-.11-.64,3.29,3.29,0,0,0-.25-.79,2.15,2.15,0,0,0-.43-.66.79.79,0,0,0-.6-.29,1.68,1.68,0,0,0-.67.16,3.31,3.31,0,0,0-.64.41,2.26,2.26,0,0,0-.49.58,1.27,1.27,0,0,0-.2.67,1.07,1.07,0,0,0,.06.35l.12.33a3.42,3.42,0,0,1,.13.34,1.13,1.13,0,0,1,.06.36.75.75,0,0,1-.06.29.24.24,0,0,1-.25.14.4.4,0,0,1-.34-.25,2.75,2.75,0,0,1-.25-.63l-.23-.81a6.63,6.63,0,0,0-.31-.82,2.09,2.09,0,0,0-.44-.62.94.94,0,0,0-.68-.25,1.13,1.13,0,0,0-.56.14,1.25,1.25,0,0,0-.41.35,2,2,0,0,0-.24.51,1.84,1.84,0,0,0-.09.57,5.62,5.62,0,0,0,.07.92,6.84,6.84,0,0,1,.06.91,1,1,0,0,1,0,.3c0,.09-.1.13-.23.13a.38.38,0,0,1-.22-.06.47.47,0,0,1-.14-.17,1.12,1.12,0,0,1-.1-.22l-.06-.22c0-.32,0-.61,0-.89s0-.53,0-.78,0-.49-.05-.74,0-.51,0-.8v-.2a.49.49,0,0,0,0-.12v-.07a.11.11,0,0,1,.06-.06l.05-.06h.06a.35.35,0,0,1,.3.14.49.49,0,0,1,.09.3l.33-.31a1.81,1.81,0,0,1,.29-.17.89.89,0,0,1,.28-.07h.35a2.35,2.35,0,0,1,.62.07,2,2,0,0,1,.5.21,1.91,1.91,0,0,1,.41.35,4.33,4.33,0,0,1,.37.5h.06l.12-.11a2.46,2.46,0,0,1,.28-.27,5.26,5.26,0,0,1,.41-.35,5.6,5.6,0,0,1,.49-.36,3.84,3.84,0,0,1,.53-.28,1.44,1.44,0,0,1,.53-.11,1.52,1.52,0,0,1,.71.17,1.87,1.87,0,0,1,.55.43,2.66,2.66,0,0,1,.42.63,4.45,4.45,0,0,1,.3.71,5.11,5.11,0,0,1,.17.73,5.73,5.73,0,0,1,.05.67c0,.08,0,.21,0,.41a3.9,3.9,0,0,1-.05.58,2.36,2.36,0,0,1-.17.53.37.37,0,0,1-.33.23.34.34,0,0,1-.16,0,.36.36,0,0,1-.07-.1.59.59,0,0,1,0-.13Z"/><path class="cls-2" d="M159.17,43.5a3.75,3.75,0,0,1,.18-1.16,3,3,0,0,1,.53-1,2.49,2.49,0,0,1,.84-.67,2.54,2.54,0,0,1,1.16-.26,1.89,1.89,0,0,1,.67.22,1.41,1.41,0,0,1,.47.4,1.52,1.52,0,0,1,.26.56,2.7,2.7,0,0,1,.07.65,1.27,1.27,0,0,1-.24.76,2.11,2.11,0,0,1-.62.57,2.92,2.92,0,0,1-.81.35,2.73,2.73,0,0,1-.81.13h-.29a.71.71,0,0,1-.26,0,.39.39,0,0,1-.26-.42.3.3,0,0,1,0-.1s0,0,.1-.06h.24l.45.07a1.33,1.33,0,0,0,.47-.11,5,5,0,0,0,.64-.28,2.63,2.63,0,0,0,.55-.41.63.63,0,0,0,.24-.45,1.44,1.44,0,0,0-.08-.46,1.27,1.27,0,0,0-.23-.41,1.35,1.35,0,0,0-.35-.28.83.83,0,0,0-.47-.08,1.82,1.82,0,0,0-.74.22,2.06,2.06,0,0,0-.57.49,2.12,2.12,0,0,0-.36.66,2.17,2.17,0,0,0-.13.76c0,.21,0,.41,0,.61a3,3,0,0,0,.09.6,2,2,0,0,0,.24.56,1.65,1.65,0,0,0,.5.48,3.08,3.08,0,0,0,.81.34,6.28,6.28,0,0,0,1.22.17l2.1-.14a1.62,1.62,0,0,1-.48.42,2.55,2.55,0,0,1-.61.26,3.5,3.5,0,0,1-.64.15,4.27,4.27,0,0,1-.59,0,3.59,3.59,0,0,1-1.28-.23,3.4,3.4,0,0,1-1.06-.62,3,3,0,0,1-.72-1A3.22,3.22,0,0,1,159.17,43.5Z"/><path class="cls-2" d="M165.33,45.23a.47.47,0,0,1,.17-.09l.17,0a.63.63,0,0,1,.22.05l.19.13.18.15a.82.82,0,0,0,.2.12l.49.21.33.13a1.7,1.7,0,0,0,.35.06h1.11a2.43,2.43,0,0,0,.67-.06,1.32,1.32,0,0,0,.54-.23.61.61,0,0,0,.22-.52.65.65,0,0,0-.18-.53,1.25,1.25,0,0,0-.52-.3,3.72,3.72,0,0,0-.74-.15l-.84-.09A7.91,7.91,0,0,1,167,44a2.33,2.33,0,0,1-.74-.28,1.37,1.37,0,0,1-.53-.51,1.64,1.64,0,0,1-.21-.85,1,1,0,0,1,.37-.62,2,2,0,0,1,.71-.39,2.86,2.86,0,0,1,.89-.14,2.39,2.39,0,0,1,.86.12,1.47,1.47,0,0,1,.65.39,1,1,0,0,1,.28.67.89.89,0,0,1,0,.38.57.57,0,0,1-.15.23.3.3,0,0,1-.21.07.19.19,0,0,1-.16-.08.36.36,0,0,1-.06-.22.91.91,0,0,1,.14-.37.5.5,0,0,0-.27-.35,1.6,1.6,0,0,0-.52-.19,2.52,2.52,0,0,0-.62,0,2.64,2.64,0,0,0-.61.12,1.36,1.36,0,0,0-.45.25.38.38,0,0,0-.14.35.7.7,0,0,0,.2.55,1.36,1.36,0,0,0,.53.3,3.79,3.79,0,0,0,.76.15l.88.09a8,8,0,0,1,.87.11,2.52,2.52,0,0,1,.76.26,1.3,1.3,0,0,1,.54.47,1.41,1.41,0,0,1,.2.78,1,1,0,0,1-.19.63,1.65,1.65,0,0,1-.47.44,2.18,2.18,0,0,1-.63.25,2.47,2.47,0,0,1-.64.09h-.65c-.23,0-.47,0-.71,0a6.64,6.64,0,0,1-.72-.11,2.55,2.55,0,0,1-.67-.24,2.2,2.2,0,0,1-.56-.4A2.14,2.14,0,0,1,165.33,45.23Z"/></g></g></svg>