<svg xmlns="http://www.w3.org/2000/svg" xmlns:xlink="http://www.w3.org/1999/xlink" viewBox="0 0 42.89 94.2"><defs><style>.cls-1{fill:url(#linear-gradient);}.cls-2{fill:#515151;}</style><linearGradient id="linear-gradient" x1="1.14" y1="31.91" x2="41.75" y2="31.91" gradientUnits="userSpaceOnUse"><stop offset="0" stop-color="#599146"/><stop offset="0.3" stop-color="#6da44b"/><stop offset="1" stop-color="#99cd55"/></linearGradient></defs><title>valerian-games-logo-vertical </title><g id="Layer_2" data-name="Layer 2"><g id="Layer_1-2" data-name="Layer 1"><path class="cls-1" d="M32.77,50.86s4.43-8.36-.49-17a15.77,15.77,0,0,1-2.13,4.86A15.9,15.9,0,0,0,25.29,26C19.74,20.42,9.55,11.52,12.54,0c0,0-9.56,9.45-8.47,19.13a5.13,5.13,0,0,1-2.13-2.84S-2.69,37.64,10.33,47a23.58,23.58,0,0,1-5.19-.62s11.15,14.24,25.58,7.17c0,0-16.6-7-20.06-29.31,0,0,4.47,19.4,21,28a21.27,21.27,0,0,1,8.08,11.57l2-.61S41.26,57.43,32.77,50.86Z"/><path class="cls-2" d="M0,73.81c0-.1,0-.17.1-.19a.83.83,0,0,1,.22,0,.62.62,0,0,1,.49.3,5.28,5.28,0,0,1,.41.72c.12.27.23.54.33.82a5.58,5.58,0,0,0,.26.63c0,.06.08.17.16.35s.18.38.29.62l.33.76.34.76c.11.24.21.45.28.63s.13.3.15.35a.87.87,0,0,0,.18-.39c.06-.2.12-.45.19-.75s.14-.63.2-1,.13-.72.2-1.08.15-.72.22-1.06.15-.64.22-.9a4.19,4.19,0,0,1,.22-.6c.07-.14.14-.2.21-.17s.24,0,.29.2a2.07,2.07,0,0,1,.07.72,8.61,8.61,0,0,1-.11,1.11c-.06.42-.15.86-.25,1.31s-.23.9-.37,1.35a11.85,11.85,0,0,1-.43,1.24,7.59,7.59,0,0,1-.48,1,1.41,1.41,0,0,1-.45.5H3.08c0-.09-.12-.25-.25-.48s-.24-.47-.37-.72-.25-.49-.36-.72a4.93,4.93,0,0,1-.22-.47c-.06-.12-.15-.3-.26-.55s-.24-.54-.38-.85l-.43-1-.4-1c-.13-.31-.22-.58-.3-.83A2.24,2.24,0,0,1,0,73.81Z"/><path class="cls-2" d="M6,78.6a1.87,1.87,0,0,1,.14-.54,2.55,2.55,0,0,1,.39-.6,3,3,0,0,1,.67-.52,2.87,2.87,0,0,1,1-.32,4.29,4.29,0,0,1,1.25,0A7,7,0,0,1,11,77v-.14l0-.13a1.48,1.48,0,0,0-.21-.73,2.66,2.66,0,0,0-.53-.68,2.91,2.91,0,0,0-.7-.48,1.59,1.59,0,0,0-.73-.19.61.61,0,0,0-.24,0,.78.78,0,0,0-.2.11l-.19.11a.46.46,0,0,1-.21,0s0,0,0,0l0,0-.08-.07s0,0,0,0a.83.83,0,0,1,.1-.43.71.71,0,0,1,.25-.29,1,1,0,0,1,.36-.18,1.42,1.42,0,0,1,.42-.06,2.69,2.69,0,0,1,1.06.34,4.28,4.28,0,0,1,.94.72,4.41,4.41,0,0,1,.74,1,7.24,7.24,0,0,1,.53,1.17,5.32,5.32,0,0,1,.29,1.21,4.84,4.84,0,0,1,0,1.2h-.23l-.14,0-.07,0a4,4,0,0,0-.66-1,3.73,3.73,0,0,0-.71-.64,2.82,2.82,0,0,0-.66-.32l-.5-.13-.5,0a4.55,4.55,0,0,0-.59.1,3.57,3.57,0,0,0-.61.19,2.26,2.26,0,0,0-.56.28,1.35,1.35,0,0,0-.39.4.94.94,0,0,0-.15.53.71.71,0,0,0,.27.56,2,2,0,0,0,.64.38,3.41,3.41,0,0,0,.76.2A4.34,4.34,0,0,0,9,80c.26,0,.51,0,.76,0l.75-.1.73-.1a5.79,5.79,0,0,1,.72,0h.47c.07,0,.12.07.13.13s0,.11,0,.16-.06.12-.17.19a3.07,3.07,0,0,1-.46.19l-.61.2a6.43,6.43,0,0,1-.66.17l-.58.12a1.84,1.84,0,0,1-.38,0,7.85,7.85,0,0,1-1.24-.1,4.18,4.18,0,0,1-1.2-.35,2.33,2.33,0,0,1-.89-.72A1.84,1.84,0,0,1,6,78.6Z"/><path class="cls-2" d="M13.51,80.84c-.09-.66-.15-1.31-.18-2s0-1.3,0-2,0-1.31,0-2,0-1.3,0-2a.16.16,0,0,1,.08-.15.45.45,0,0,1,.2,0,.31.31,0,0,1,.22.09.76.76,0,0,1,.17.22,1.72,1.72,0,0,1,.1.26.69.69,0,0,1,0,.22c0,1.32.09,2.43.11,3.31s0,1.6,0,2.14a11.47,11.47,0,0,1-.09,1.21,1.38,1.38,0,0,1-.16.52.23.23,0,0,1-.23.12Z"/><path class="cls-2" d="M14.91,77.23a4.3,4.3,0,0,1,.22-1.39,3.59,3.59,0,0,1,.62-1.16,3.24,3.24,0,0,1,1-.8,3.14,3.14,0,0,1,1.37-.29,2,2,0,0,1,.8.25,1.87,1.87,0,0,1,.56.48,1.83,1.83,0,0,1,.31.66,3.19,3.19,0,0,1,.08.77,1.48,1.48,0,0,1-.29.91,2.39,2.39,0,0,1-.74.67,3.87,3.87,0,0,1-.95.42,3.48,3.48,0,0,1-1,.14h-.34a.83.83,0,0,1-.32,0,.52.52,0,0,1-.22-.17.57.57,0,0,1-.08-.33.37.37,0,0,1,0-.12s0-.06.12-.07a1.22,1.22,0,0,1,.29,0l.53.09a2.11,2.11,0,0,0,.56-.13,5,5,0,0,0,.75-.35,2.53,2.53,0,0,0,.66-.47.77.77,0,0,0,.28-.54,1.71,1.71,0,0,0-.09-.55,1.42,1.42,0,0,0-.27-.48,1.27,1.27,0,0,0-.43-.33.91.91,0,0,0-.55-.1,2.37,2.37,0,0,0-.88.26,2.34,2.34,0,0,0-.67.58,2.64,2.64,0,0,0-.43.79,2.47,2.47,0,0,0-.16.9c0,.24,0,.48,0,.72a3.38,3.38,0,0,0,.1.71,2.47,2.47,0,0,0,.29.67,1.87,1.87,0,0,0,.59.56,3.3,3.3,0,0,0,1,.4,6.69,6.69,0,0,0,1.45.21l2.49-.17a1.84,1.84,0,0,1-.57.5,3.33,3.33,0,0,1-.72.31,5.23,5.23,0,0,1-.76.18,5.92,5.92,0,0,1-.71,0,4.44,4.44,0,0,1-1.51-.26,4,4,0,0,1-1.25-.75,3.45,3.45,0,0,1-.86-1.16A3.86,3.86,0,0,1,14.91,77.23Z"/><path class="cls-2" d="M23.51,81A7,7,0,0,1,23,79.74a11.75,11.75,0,0,1-.38-1.32c-.1-.44-.18-.88-.24-1.3s-.1-.8-.12-1.14c0-.07,0-.14,0-.22a1,1,0,0,1,0-.24.93.93,0,0,1,0-.24.39.39,0,0,1,.12-.19h0a0,0,0,0,0,0,0,0,0,0,0,1,0,0h.07l.14,0,.14.07a4.24,4.24,0,0,0,.52-.2l.53-.22a5.05,5.05,0,0,1,.55-.18,2.58,2.58,0,0,1,.54-.07l.34,0a1.35,1.35,0,0,1,.29,0l.32.08.39.12.2.16a1.29,1.29,0,0,1,.16.17.68.68,0,0,1,.12.24,1.19,1.19,0,0,1,0,.36,1.6,1.6,0,0,1-.52,0l-.62-.16c-.22-.07-.45-.12-.68-.17a2.54,2.54,0,0,0-.66-.06,1.24,1.24,0,0,0-.6.18,1.3,1.3,0,0,0-.52.5,3.15,3.15,0,0,0-.08.8,3.66,3.66,0,0,0,.1.75,6.84,6.84,0,0,0,.21.74c.09.25.18.49.25.74s.15.48.22.73a3.59,3.59,0,0,1,.12.73.45.45,0,0,1-.15.3A.46.46,0,0,1,23.51,81Z"/><path class="cls-2" d="M27.09,72.65q0-.16.09-.21a.62.62,0,0,1,.25,0c.07,0,.15,0,.26.12a1.22,1.22,0,0,1,.26.3.72.72,0,0,1,.12.3c0,.11-.06.18-.21.2h-.07a1.65,1.65,0,0,1-.34,0,.5.5,0,0,1-.22-.09.32.32,0,0,1-.11-.19A1.56,1.56,0,0,1,27.09,72.65Zm.7,3.49v-.21c0-.1,0-.2,0-.31s0-.22,0-.32v-.21c0-.29,0-.43.25-.43a.35.35,0,0,1,.23.07.61.61,0,0,1,.19.2,6.46,6.46,0,0,0,.06,1.4c.07.45.15.89.23,1.33S29,78.55,29,79a7.9,7.9,0,0,1,.12,1.39.74.74,0,0,1-.12.39.37.37,0,0,1-.35.2c-.12,0-.22-.11-.31-.32a3.77,3.77,0,0,1-.23-.79c-.07-.32-.12-.67-.17-1.06s-.08-.76-.1-1.12,0-.68-.05-1S27.79,76.24,27.79,76.14Z"/><path class="cls-2" d="M29.67,78.6a1.87,1.87,0,0,1,.14-.54,2,2,0,0,1,.39-.6,3,3,0,0,1,.67-.52,2.8,2.8,0,0,1,.95-.32,4.28,4.28,0,0,1,1.25,0,6.77,6.77,0,0,1,1.56.42v-.27a1.48,1.48,0,0,0-.21-.73,2.9,2.9,0,0,0-.53-.68,3,3,0,0,0-.71-.48,1.55,1.55,0,0,0-.72-.19.61.61,0,0,0-.24,0,.78.78,0,0,0-.2.11l-.19.11a.48.48,0,0,1-.22,0s0,0,0,0l0,0-.08-.07s0,0,0,0a.94.94,0,0,1,.09-.43.79.79,0,0,1,.25-.29,1.22,1.22,0,0,1,.36-.18,1.54,1.54,0,0,1,.43-.06,2.75,2.75,0,0,1,1.06.34,4,4,0,0,1,.93.72,4.77,4.77,0,0,1,.75,1,7.24,7.24,0,0,1,.53,1.17,5.91,5.91,0,0,1,.29,1.21,4.84,4.84,0,0,1,0,1.2h-.24l-.14,0-.07,0a4,4,0,0,0-.65-1,4.06,4.06,0,0,0-.71-.64,2.82,2.82,0,0,0-.66-.32l-.5-.13-.5,0a4.28,4.28,0,0,0-.59.1,4,4,0,0,0-.62.19,2.19,2.19,0,0,0-.55.28,1.15,1.15,0,0,0-.39.4.94.94,0,0,0-.15.53.71.71,0,0,0,.27.56,2,2,0,0,0,.63.38A3.64,3.64,0,0,0,32,80a4.34,4.34,0,0,0,.63.06c.25,0,.51,0,.76,0l.74-.1.73-.1a5.79,5.79,0,0,1,.72,0h.48a.17.17,0,0,1,.12.13.88.88,0,0,1,0,.16c0,.06-.06.12-.18.19a2.53,2.53,0,0,1-.45.19l-.62.2a5.68,5.68,0,0,1-.65.17l-.58.12a1.84,1.84,0,0,1-.39,0,7.64,7.64,0,0,1-1.23-.1,4.09,4.09,0,0,1-1.2-.35,2.33,2.33,0,0,1-.89-.72A1.84,1.84,0,0,1,29.67,78.6Z"/><path class="cls-2" d="M37,75.53a.15.15,0,0,1,.09-.16.64.64,0,0,1,.2,0c.06,0,.1,0,.12,0a.31.31,0,0,1,0,.1.42.42,0,0,0,0,.1.11.11,0,0,0,.1,0,1,1,0,0,0,.47-.15l.6-.34a6.47,6.47,0,0,1,.7-.33,1.91,1.91,0,0,1,.73-.15,1.68,1.68,0,0,1,.87.24,2.71,2.71,0,0,1,.71.65,4.64,4.64,0,0,1,.53.9,8.89,8.89,0,0,1,.38,1,8.39,8.39,0,0,1,.22,1,7.58,7.58,0,0,1,.07.86c0,.08,0,.21,0,.37s0,.34-.07.51a1.67,1.67,0,0,1-.16.43.33.33,0,0,1-.28.19h-.1l-.14,0-.12,0a.1.1,0,0,1,0-.09,8.35,8.35,0,0,0,0-2A7.11,7.11,0,0,0,41.55,77a3.33,3.33,0,0,0-.68-1.13,1.2,1.2,0,0,0-.86-.41,2.16,2.16,0,0,0-.81.14,1.82,1.82,0,0,0-.65.4,2,2,0,0,0-.44.64,2.18,2.18,0,0,0-.16.82,4.38,4.38,0,0,0,.09.88c.05.29.12.58.18.88s.14.58.19.88a4.41,4.41,0,0,1,.09.89.84.84,0,0,1-.66-.32,2.53,2.53,0,0,1-.42-.82,6.75,6.75,0,0,1-.25-1.13c-.06-.41-.1-.83-.13-1.23s0-.78,0-1.14Z"/><path class="cls-2" d="M13.12,91.86a.38.38,0,0,1,0-.26.55.55,0,0,1,.14-.19.4.4,0,0,1,.18-.1.24.24,0,0,1,.17,0,.25.25,0,0,1,.08.17.74.74,0,0,1-.07.35.66.66,0,0,0,.2.45,1.74,1.74,0,0,0,.51.4A4.78,4.78,0,0,0,15,93c.24.1.48.18.71.25a5.19,5.19,0,0,0,.62.16,1.7,1.7,0,0,0,.38,0,.73.73,0,0,0,.45-.13,1.25,1.25,0,0,0,.32-.36,2.28,2.28,0,0,0,.21-.5,5.59,5.59,0,0,0,.12-.56c0-.19,0-.37.05-.54s0-.33,0-.44,0-.16,0-.32,0-.32-.05-.52-.05-.4-.07-.61-.06-.41-.1-.59a2.55,2.55,0,0,0-.11-.44c0-.11-.08-.17-.12-.17a.69.69,0,0,0-.25.06l-.29.14-.32.14a.8.8,0,0,1-.3.06,1.33,1.33,0,0,1-.58-.13,1.66,1.66,0,0,1-.49-.32,1.47,1.47,0,0,1-.33-.48,1.25,1.25,0,0,1-.13-.57,2.5,2.5,0,0,1,.19-.94,3.24,3.24,0,0,1,.5-.89,2.77,2.77,0,0,1,.76-.65,1.81,1.81,0,0,1,.93-.26,1.08,1.08,0,0,1,.62.48,3.06,3.06,0,0,1,.37.93,8.09,8.09,0,0,1,.19,1.21c0,.45.06.9.08,1.37s0,.92,0,1.36,0,.85.08,1.22c0,.16,0,.35,0,.57s-.05.45-.09.68a5,5,0,0,1-.18.69,2.15,2.15,0,0,1-.29.61,1.51,1.51,0,0,1-.43.44,1.1,1.1,0,0,1-.6.16,4.46,4.46,0,0,1-.66-.06,5.5,5.5,0,0,1-.8-.2,7.25,7.25,0,0,1-.83-.34,3.78,3.78,0,0,1-.73-.46,2.07,2.07,0,0,1-.53-.58A1.32,1.32,0,0,1,13.12,91.86Zm2.21-4.81a1.13,1.13,0,0,0,.06.36.94.94,0,0,0,.17.31.84.84,0,0,0,.27.22.87.87,0,0,0,.37.07A1.33,1.33,0,0,0,17,87.8a1,1,0,0,0,.39-.52,2.15,2.15,0,0,0,.1-.68q0-.36,0-.66c0-.1,0-.2,0-.3a.84.84,0,0,0-.08-.27.58.58,0,0,0-.18-.2.49.49,0,0,0-.28-.07,1.14,1.14,0,0,0-.64.19,1.79,1.79,0,0,0-.5.49,2.34,2.34,0,0,0-.32.63A1.94,1.94,0,0,0,15.33,87.05Z"/><path class="cls-2" d="M18.68,87.15a1.55,1.55,0,0,1,.4-.86,2.32,2.32,0,0,1,.51-.4,2.34,2.34,0,0,1,.72-.25,3.32,3.32,0,0,1,1,0,5.25,5.25,0,0,1,1.18.32v-.2a1.21,1.21,0,0,0-.15-.56,2,2,0,0,0-.41-.51,2.4,2.4,0,0,0-.53-.37,1.28,1.28,0,0,0-.55-.14.48.48,0,0,0-.18,0,.8.8,0,0,0-.16.08l-.14.08a.27.27,0,0,1-.16,0s0,0,0,0l0,0-.06-.05s0,0,0,0a.66.66,0,0,1,.07-.32.51.51,0,0,1,.19-.22,1.15,1.15,0,0,1,.27-.14,1.12,1.12,0,0,1,.32,0,2,2,0,0,1,.81.26,3,3,0,0,1,.71.54,3.86,3.86,0,0,1,.56.75,6,6,0,0,1,.41.89,4.23,4.23,0,0,1,.21.92,3.41,3.41,0,0,1,0,.9h-.18l-.1,0h-.05a3.33,3.33,0,0,0-.5-.8,2.91,2.91,0,0,0-.54-.48,2.49,2.49,0,0,0-.5-.24l-.38-.1-.38,0a3.11,3.11,0,0,0-.91.22,2.46,2.46,0,0,0-.43.21,1.17,1.17,0,0,0-.29.3.78.78,0,0,0-.11.41.57.57,0,0,0,.2.43,1.6,1.6,0,0,0,.48.28,3.1,3.1,0,0,0,.58.15,3.28,3.28,0,0,0,.48,0,5.63,5.63,0,0,0,.58,0l.56-.07.55-.07a3.48,3.48,0,0,1,.55,0h.36c.06,0,.09.06.1.1s0,.08,0,.13,0,.08-.14.13a1.88,1.88,0,0,1-.34.15l-.47.15c-.17.06-.33.1-.49.14l-.44.08a1.55,1.55,0,0,1-.29,0,6.22,6.22,0,0,1-.94-.07,3.32,3.32,0,0,1-.91-.27,1.9,1.9,0,0,1-.68-.54A1.44,1.44,0,0,1,18.68,87.15Z"/><path class="cls-2" d="M31,88.56a.25.25,0,0,1,0-.08v-.27s0-.08,0-.17,0-.21,0-.32l0-.32c0-.1,0-.17,0-.2s-.05-.34-.1-.58a3.77,3.77,0,0,0-.22-.7,2.3,2.3,0,0,0-.39-.6.72.72,0,0,0-.55-.26,1.36,1.36,0,0,0-.59.15,2.11,2.11,0,0,0-.58.37,1.82,1.82,0,0,0-.44.52,1.11,1.11,0,0,0-.18.6.85.85,0,0,0,.06.31c0,.1.07.2.11.3s.07.2.11.3a1.26,1.26,0,0,1,.05.33.7.7,0,0,1-.05.25.21.21,0,0,1-.22.13.37.37,0,0,1-.32-.22,3.44,3.44,0,0,1-.22-.56c-.06-.23-.13-.48-.21-.74a4.22,4.22,0,0,0-.27-.73,1.71,1.71,0,0,0-.4-.56.85.85,0,0,0-.61-.22,1,1,0,0,0-.5.12,1,1,0,0,0-.37.32,1.57,1.57,0,0,0-.22.45,1.82,1.82,0,0,0-.08.52,5.55,5.55,0,0,0,.06.82,5.76,5.76,0,0,1,.06.82,1.12,1.12,0,0,1,0,.27q0,.12-.21.12a.32.32,0,0,1-.2-.06.44.44,0,0,1-.13-.14.7.7,0,0,1-.08-.2c0-.08,0-.14-.06-.2a7.23,7.23,0,0,0,0-.8c0-.25,0-.48,0-.7L24.26,86c0-.22,0-.46,0-.72v-.18a.41.41,0,0,0,0-.11v-.06s0,0,.05-.06.05,0,.05,0h.06a.29.29,0,0,1,.26.13.46.46,0,0,1,.08.27l.3-.28a1,1,0,0,1,.26-.15.72.72,0,0,1,.25-.07h.32a2.29,2.29,0,0,1,.55.07,1.51,1.51,0,0,1,.45.18,1.58,1.58,0,0,1,.37.32,4.39,4.39,0,0,1,.34.45h.05l.11-.1.25-.25.37-.31a3.28,3.28,0,0,1,.44-.32,3,3,0,0,1,.47-.25,1.22,1.22,0,0,1,.48-.1,1.34,1.34,0,0,1,.64.15,1.83,1.83,0,0,1,.5.39,3.24,3.24,0,0,1,.38.56,5,5,0,0,1,.26.64,3.92,3.92,0,0,1,.15.66,4.54,4.54,0,0,1,0,.6c0,.07,0,.19,0,.37a3.15,3.15,0,0,1-.05.52,1.69,1.69,0,0,1-.15.48.33.33,0,0,1-.3.2.21.21,0,0,1-.13,0L31,88.82a.5.5,0,0,1,0-.12Z"/><path class="cls-2" d="M32.23,86.11a3.3,3.3,0,0,1,.17-1,2.66,2.66,0,0,1,.47-.88,2.38,2.38,0,0,1,.76-.61,2.28,2.28,0,0,1,1-.22,1.41,1.41,0,0,1,.6.19,1.27,1.27,0,0,1,.43.36,1.53,1.53,0,0,1,.23.5A2.22,2.22,0,0,1,36,85a1.17,1.17,0,0,1-.23.69,1.92,1.92,0,0,1-.55.51,3.14,3.14,0,0,1-.73.31,2.44,2.44,0,0,1-.73.11H33.5a.59.59,0,0,1-.23,0,.37.37,0,0,1-.17-.13.42.42,0,0,1-.06-.25.28.28,0,0,1,0-.09.13.13,0,0,1,.09,0h.22l.4.07a1.66,1.66,0,0,0,.43-.1,5.65,5.65,0,0,0,.57-.26,2.79,2.79,0,0,0,.5-.36.6.6,0,0,0,.21-.41,1.23,1.23,0,0,0-.07-.42,1.27,1.27,0,0,0-.2-.36,1,1,0,0,0-.33-.25.71.71,0,0,0-.41-.08,1.64,1.64,0,0,0-.67.2,1.8,1.8,0,0,0-.51.44,2.19,2.19,0,0,0-.33.6,1.91,1.91,0,0,0-.12.68c0,.18,0,.37,0,.55a2.5,2.5,0,0,0,.07.54,1.73,1.73,0,0,0,.23.5,1.39,1.39,0,0,0,.44.43,2.77,2.77,0,0,0,.73.3,4.59,4.59,0,0,0,1.1.16l1.88-.13a1.28,1.28,0,0,1-.42.38,3,3,0,0,1-.55.24,4.35,4.35,0,0,1-.58.13,3.44,3.44,0,0,1-1.68-.16,2.91,2.91,0,0,1-1-.56,2.66,2.66,0,0,1-.65-.89A2.78,2.78,0,0,1,32.23,86.11Z"/><path class="cls-2" d="M37.78,87.66a.28.28,0,0,1,.15-.08l.15,0a.41.41,0,0,1,.19,0,1.08,1.08,0,0,1,.18.11l.16.14.18.1.44.19a2.34,2.34,0,0,0,.3.12,1.34,1.34,0,0,0,.31,0h1a2.91,2.91,0,0,0,.6-.06,1.21,1.21,0,0,0,.49-.21.56.56,0,0,0,.2-.47.64.64,0,0,0-.16-.48,1.25,1.25,0,0,0-.47-.26,3.17,3.17,0,0,0-.67-.14l-.76-.08a4.81,4.81,0,0,1-.76-.12,2.31,2.31,0,0,1-.67-.24,1.32,1.32,0,0,1-.47-.47,1.42,1.42,0,0,1-.19-.76.93.93,0,0,1,.33-.56,1.88,1.88,0,0,1,.64-.35,2.63,2.63,0,0,1,.8-.12,2.36,2.36,0,0,1,.77.1,1.35,1.35,0,0,1,.59.35,1.06,1.06,0,0,1,.22,1,.55.55,0,0,1-.14.21.35.35,0,0,1-.19.06.21.21,0,0,1-.15-.07.3.3,0,0,1,0-.2.67.67,0,0,1,.12-.33.48.48,0,0,0-.24-.32,1.37,1.37,0,0,0-.47-.16,2,2,0,0,0-.56,0,2.33,2.33,0,0,0-.55.12,1.09,1.09,0,0,0-.4.22.33.33,0,0,0-.13.31.64.64,0,0,0,.18.49,1.25,1.25,0,0,0,.48.27,4.07,4.07,0,0,0,.68.14l.79.08c.27,0,.53.06.79.1a2.37,2.37,0,0,1,.68.23,1.21,1.21,0,0,1,.49.43,1.23,1.23,0,0,1,.18.7,1,1,0,0,1-.17.56,1.64,1.64,0,0,1-.43.4,2.13,2.13,0,0,1-.56.23,2.47,2.47,0,0,1-.58.07h-.59l-.63,0c-.21,0-.43-.06-.65-.1a2.65,2.65,0,0,1-.6-.21,1.86,1.86,0,0,1-.5-.37A1.55,1.55,0,0,1,37.78,87.66Z"/></g></g></svg>