<svg xmlns="http://www.w3.org/2000/svg" viewBox="0 0 23.04 50.61"><defs><style>.cls-1{fill:#fff;}</style></defs><title>valerian-games-logo-white-vertical</title><g id="Layer_2" data-name="Layer 2"><g id="Layer_1-2" data-name="Layer 1"><path class="cls-1" d="M17.61,27.33a10.08,10.08,0,0,0-.26-9.14A8.69,8.69,0,0,1,16.2,20.8a8.55,8.55,0,0,0-2.61-6.86C10.61,11,5.13,6.19,6.74,0c0,0-5.14,5.08-4.55,10.28A2.75,2.75,0,0,1,1,8.75s-2.49,11.47,4.51,16.5a12.28,12.28,0,0,1-2.79-.34s6,7.66,13.75,3.86c0,0-8.92-3.79-10.78-15.75,0,0,2.4,10.42,11.27,15.06a11.42,11.42,0,0,1,4.34,6.21L22.43,34S22.17,30.86,17.61,27.33Z"/><path class="cls-1" d="M0,39.66c0-.06,0-.09.06-.1a.2.2,0,0,1,.11,0,.32.32,0,0,1,.26.16,1.81,1.81,0,0,1,.22.39,3.38,3.38,0,0,1,.18.44,3.27,3.27,0,0,0,.14.34l.09.18c.05.1.1.21.15.34s.12.26.18.41.13.27.19.4.1.25.14.34a1.16,1.16,0,0,0,.09.19.53.53,0,0,0,.09-.21,3.85,3.85,0,0,0,.1-.4c0-.16.08-.34.11-.53s.07-.39.11-.58l.12-.57q.06-.27.12-.48c0-.14.08-.25.11-.33s.08-.11.12-.09.13,0,.15.11a1,1,0,0,1,0,.38,3.57,3.57,0,0,1-.06.6,6.19,6.19,0,0,1-.14.7c-.05.25-.12.49-.19.73a4.73,4.73,0,0,1-.24.67,2.91,2.91,0,0,1-.25.5.66.66,0,0,1-.25.27H1.66s-.07-.14-.14-.26l-.2-.39-.19-.38L1,42.21c0-.06-.08-.16-.14-.3l-.21-.45c-.07-.17-.15-.34-.22-.53l-.22-.52C.15,40.24.1,40.09.06,40A1.11,1.11,0,0,1,0,39.66Z"/><path class="cls-1" d="M3.23,42.23a.93.93,0,0,1,.07-.29,1.46,1.46,0,0,1,.21-.32,1.32,1.32,0,0,1,.36-.28,1.46,1.46,0,0,1,.51-.17,2.12,2.12,0,0,1,.67,0,3.49,3.49,0,0,1,.84.22v-.14a.78.78,0,0,0-.11-.4,1.39,1.39,0,0,0-.29-.36,1.9,1.9,0,0,0-.37-.26.87.87,0,0,0-.39-.1l-.13,0-.11.06-.1.06a.22.22,0,0,1-.12,0h0l0,0,0,0,0,0a.47.47,0,0,1,0-.24.37.37,0,0,1,.13-.15l.19-.1a.91.91,0,0,1,.23,0,1.46,1.46,0,0,1,.57.18,2.05,2.05,0,0,1,.5.39,2.38,2.38,0,0,1,.4.53,3.6,3.6,0,0,1,.29.63,2.55,2.55,0,0,1,.15.65,2.31,2.31,0,0,1,0,.64H6.45a2,2,0,0,0-.35-.56,1.9,1.9,0,0,0-.38-.34,1.16,1.16,0,0,0-.36-.17l-.27-.08-.26,0-.32.05-.33.1a1.43,1.43,0,0,0-.3.16.7.7,0,0,0-.21.21.55.55,0,0,0-.08.29.39.39,0,0,0,.14.3,1.19,1.19,0,0,0,.35.2,1.91,1.91,0,0,0,.41.11l.33,0,.41,0,.4-.06.4,0,.38,0h.26a.09.09,0,0,1,.07.06V43s0,.06-.09.1a1.45,1.45,0,0,1-.24.1,2.27,2.27,0,0,1-.34.11l-.35.1-.31.06-.21,0a4,4,0,0,1-.66-.06,1.91,1.91,0,0,1-.64-.19,1.21,1.21,0,0,1-.48-.38A1,1,0,0,1,3.23,42.23Z"/><path class="cls-1" d="M7.26,43.44c0-.36-.08-.71-.1-1.06s0-.7,0-1.06,0-.7,0-1,0-.7,0-1.05a.08.08,0,0,1,0-.08l.11,0a.21.21,0,0,1,.12.05l.09.12a.78.78,0,0,1,0,.14.3.3,0,0,1,0,.12c0,.71.05,1.3.06,1.78s0,.86,0,1.15a4.22,4.22,0,0,1,0,.64.87.87,0,0,1-.08.29.13.13,0,0,1-.13.06Z"/><path class="cls-1" d="M8,41.49a2.34,2.34,0,0,1,.12-.74,2.16,2.16,0,0,1,.33-.62A1.74,1.74,0,0,1,9,39.7a1.58,1.58,0,0,1,.74-.16,1.2,1.2,0,0,1,.43.13,1.08,1.08,0,0,1,.3.26,1,1,0,0,1,.16.35,1.86,1.86,0,0,1,0,.42.8.8,0,0,1-.16.49,1.49,1.49,0,0,1-.39.36,2,2,0,0,1-.52.22,1.63,1.63,0,0,1-.51.08H8.91a.47.47,0,0,1-.17,0,.27.27,0,0,1-.12-.09.3.3,0,0,1,0-.18.13.13,0,0,1,0-.06.09.09,0,0,1,.06,0,.84.84,0,0,1,.16,0l.29,0a.94.94,0,0,0,.3-.07,2,2,0,0,0,.4-.18,1.38,1.38,0,0,0,.36-.26.42.42,0,0,0,.14-.28,1,1,0,0,0,0-.3A.78.78,0,0,0,9.88,40a.54.54,0,0,0-.29-.05,1.27,1.27,0,0,0-.48.14,1.34,1.34,0,0,0-.36.31,1.37,1.37,0,0,0-.23.43,1.51,1.51,0,0,0-.08.48c0,.13,0,.26,0,.39A1.58,1.58,0,0,0,8.5,42a1.42,1.42,0,0,0,.16.36,1,1,0,0,0,.31.3,1.94,1.94,0,0,0,.52.22,4.71,4.71,0,0,0,.78.11l1.33-.09a1.08,1.08,0,0,1-.3.26,1.71,1.71,0,0,1-.39.17,2.92,2.92,0,0,1-.4.1l-.38,0a2.25,2.25,0,0,1-.82-.15,2,2,0,0,1-1.13-1A2.07,2.07,0,0,1,8,41.49Z"/><path class="cls-1" d="M12.63,43.5a4.24,4.24,0,0,1-.28-.65,6.29,6.29,0,0,1-.2-.71,6.54,6.54,0,0,1-.13-.7c0-.23-.06-.43-.07-.62v-.11a.62.62,0,0,1,0-.13.5.5,0,0,1,0-.13.24.24,0,0,1,.06-.11h.07l.07,0,.08,0a1.53,1.53,0,0,0,.27-.11l.29-.12.29-.09a1.54,1.54,0,0,1,.3,0h.18l.16,0,.16,0,.21.07.11.08.09.09a.31.31,0,0,1,.06.13.56.56,0,0,1,0,.2.92.92,0,0,1-.28,0l-.34-.09-.36-.09-.36,0a.75.75,0,0,0-.32.1.66.66,0,0,0-.28.27,1.5,1.5,0,0,0,0,.42,1.84,1.84,0,0,0,.05.41,3.57,3.57,0,0,0,.12.4l.13.39.12.39a2.57,2.57,0,0,1,.06.4.22.22,0,0,1-.08.16A.25.25,0,0,1,12.63,43.5Z"/><path class="cls-1" d="M14.55,39a.12.12,0,0,1,.06-.12.25.25,0,0,1,.13,0s.08,0,.14.06a.7.7,0,0,1,.14.16.29.29,0,0,1,.06.16c0,.06,0,.1-.11.11h0l-.18,0a.34.34,0,0,1-.12,0,.2.2,0,0,1-.06-.11A.74.74,0,0,1,14.55,39Zm.38,1.87V40.8s0-.11,0-.17v-.29c0-.15,0-.23.14-.23a.21.21,0,0,1,.12,0,.36.36,0,0,1,.1.11,4.61,4.61,0,0,0,0,.75c0,.24.08.48.13.72s.09.47.13.71a3.67,3.67,0,0,1,.07.75.35.35,0,0,1-.07.21.2.2,0,0,1-.19.1c-.06,0-.12,0-.16-.16a2.79,2.79,0,0,1-.13-.43q0-.25-.09-.57c0-.21,0-.41,0-.6s0-.37,0-.52S14.93,41,14.93,40.91Z"/><path class="cls-1" d="M15.94,42.23a1.1,1.1,0,0,1,.29-.61,1.44,1.44,0,0,1,.35-.28,1.59,1.59,0,0,1,.52-.17,2.12,2.12,0,0,1,.67,0,3.49,3.49,0,0,1,.84.22v-.14a.89.89,0,0,0-.11-.4,1.64,1.64,0,0,0-.29-.36,2,2,0,0,0-.38-.26.8.8,0,0,0-.38-.1l-.13,0-.11.06-.1.06a.23.23,0,0,1-.12,0h0l0,0,0,0,0,0a.6.6,0,0,1,.05-.24.4.4,0,0,1,.14-.15.63.63,0,0,1,.42-.13,1.46,1.46,0,0,1,.57.18,2.05,2.05,0,0,1,.5.39,2.73,2.73,0,0,1,.4.53,4.51,4.51,0,0,1,.29.63,3.81,3.81,0,0,1,.15.65,2.77,2.77,0,0,1,0,.64h-.24a2.25,2.25,0,0,0-.35-.56,1.69,1.69,0,0,0-.39-.34,1,1,0,0,0-.35-.17l-.27-.08-.27,0-.31.05-.34.1a1.15,1.15,0,0,0-.29.16.7.7,0,0,0-.21.21.47.47,0,0,0-.08.29.39.39,0,0,0,.14.3,1.13,1.13,0,0,0,.34.2,2.08,2.08,0,0,0,.41.11l.34,0L18,43l.4-.06.39,0,.39,0h.25s.07,0,.07.06a.28.28,0,0,1,0,.09s0,.06-.09.1l-.25.1-.33.11-.35.1-.31.06-.21,0a3.85,3.85,0,0,1-.66-.06,2,2,0,0,1-.65-.19,1.37,1.37,0,0,1-.48-.38A1.08,1.08,0,0,1,15.94,42.23Z"/><path class="cls-1" d="M19.88,40.58a.08.08,0,0,1,.05-.08l.11,0,.07,0s0,0,0,0,0,0,0,.06a.06.06,0,0,0,.06,0,.51.51,0,0,0,.25-.09l.32-.18.38-.17a.92.92,0,0,1,.39-.09,1,1,0,0,1,.47.13,1.57,1.57,0,0,1,.38.35,2.64,2.64,0,0,1,.29.49c.07.18.14.36.2.55a5.23,5.23,0,0,1,.12.54,4.21,4.21,0,0,1,0,.46,1.72,1.72,0,0,1,0,.2,2.51,2.51,0,0,1,0,.27.62.62,0,0,1-.08.24.19.19,0,0,1-.15.1h-.13l-.06,0s0,0,0,0a3.9,3.9,0,0,0,0-1.08,3.64,3.64,0,0,0-.21-.89,1.75,1.75,0,0,0-.37-.6.64.64,0,0,0-.46-.23,1.27,1.27,0,0,0-.44.08,1.13,1.13,0,0,0-.35.21,1.07,1.07,0,0,0-.23.35,1,1,0,0,0-.09.44,2.42,2.42,0,0,0,.05.47c0,.16.06.32.1.47s.07.32.1.48a2.59,2.59,0,0,1,0,.48.44.44,0,0,1-.35-.18,1.21,1.21,0,0,1-.22-.44,3.31,3.31,0,0,1-.14-.6c0-.23,0-.45-.07-.66s0-.42,0-.61Z"/><path class="cls-1" d="M7.05,49.36a.17.17,0,0,1,0-.14.3.3,0,0,1,.07-.11l.1,0s.07,0,.09,0,0,.05.05.09a.54.54,0,0,1,0,.19.37.37,0,0,0,.11.24,1.23,1.23,0,0,0,.27.22,3,3,0,0,0,.36.17l.39.14a2.61,2.61,0,0,0,.33.08l.21,0a.4.4,0,0,0,.24-.07A.85.85,0,0,0,9.4,50a1.27,1.27,0,0,0,.11-.26,1.59,1.59,0,0,0,.06-.3,1.53,1.53,0,0,0,0-.3,2,2,0,0,0,0-.23,1.31,1.31,0,0,0,0-.17c0-.08,0-.18,0-.28s0-.22,0-.33a3.06,3.06,0,0,0,0-.32c0-.09,0-.17-.06-.23s0-.1-.06-.1a.38.38,0,0,0-.13,0l-.16.07-.17.08-.16,0a.74.74,0,0,1-.32-.07.9.9,0,0,1-.26-.17A1.2,1.2,0,0,1,8,47.17a.8.8,0,0,1-.06-.3A1.52,1.52,0,0,1,8,46.36a1.64,1.64,0,0,1,.28-.48,1.48,1.48,0,0,1,.4-.35,1,1,0,0,1,.5-.14.62.62,0,0,1,.34.26,1.63,1.63,0,0,1,.19.5,3.82,3.82,0,0,1,.11.65c0,.24,0,.49,0,.73s0,.5,0,.74a6.12,6.12,0,0,0,0,.65c0,.09,0,.19,0,.31s0,.24-.05.37-.06.24-.09.37a1.37,1.37,0,0,1-.16.32.69.69,0,0,1-.24.24.55.55,0,0,1-.32.08l-.35,0a2.47,2.47,0,0,1-.43-.11,3.38,3.38,0,0,1-.44-.18,2.23,2.23,0,0,1-.4-.24,1.19,1.19,0,0,1-.28-.32A.62.62,0,0,1,7.05,49.36Zm1.19-2.59a.69.69,0,0,0,0,.2.51.51,0,0,0,.09.16.44.44,0,0,0,.15.12.41.41,0,0,0,.19,0,.77.77,0,0,0,.44-.11.61.61,0,0,0,.21-.29,1,1,0,0,0,.05-.36c0-.13,0-.25,0-.35s0-.11,0-.16a.53.53,0,0,0-.05-.15.24.24,0,0,0-.09-.11.33.33,0,0,0-.15,0,.63.63,0,0,0-.35.11,1.1,1.1,0,0,0-.27.26,1.2,1.2,0,0,0-.17.34A1.06,1.06,0,0,0,8.24,46.77Z"/><path class="cls-1" d="M10,46.83a.49.49,0,0,1,.06-.22.73.73,0,0,1,.15-.25,1.21,1.21,0,0,1,.28-.21,1,1,0,0,1,.38-.13,1.71,1.71,0,0,1,.51,0,2.55,2.55,0,0,1,.64.17v-.11a.61.61,0,0,0-.08-.3,1.13,1.13,0,0,0-.22-.27,1.31,1.31,0,0,0-.28-.2.71.71,0,0,0-.3-.08l-.1,0-.08,0-.08,0-.08,0h0l0,0,0,0a.29.29,0,0,1,0-.17.29.29,0,0,1,.1-.12.35.35,0,0,1,.15-.07.47.47,0,0,1,.17,0,1.09,1.09,0,0,1,.43.14,1.53,1.53,0,0,1,.38.29,1.84,1.84,0,0,1,.31.41,2.81,2.81,0,0,1,.21.47,2.27,2.27,0,0,1,.12.5,2.6,2.6,0,0,1,0,.48h-.19a1.37,1.37,0,0,0-.26-.43,1.65,1.65,0,0,0-.29-.26,1.62,1.62,0,0,0-.27-.13l-.21-.05h-.2l-.24,0a1.44,1.44,0,0,0-.25.08l-.23.11a.75.75,0,0,0-.15.16.43.43,0,0,0-.06.22.29.29,0,0,0,.1.23,1.1,1.1,0,0,0,.26.15,1.92,1.92,0,0,0,.32.09l.25,0,.31,0,.3,0,.3,0h.49s0,0,0,.05,0,0,0,.07,0,.05-.08.07a.51.51,0,0,1-.18.08l-.25.08-.27.08-.24,0a.5.5,0,0,1-.15,0,3.08,3.08,0,0,1-.51,0,1.56,1.56,0,0,1-.48-.14,1.06,1.06,0,0,1-.37-.29A.83.83,0,0,1,10,46.83Z"/><path class="cls-1" d="M16.66,47.59a.09.09,0,0,1,0-.05V47.4a.77.77,0,0,0,0-.1.88.88,0,0,0,0-.17,1.11,1.11,0,0,0,0-.17,1,1,0,0,1,0-.11c0-.07,0-.18-.06-.31a1.51,1.51,0,0,0-.12-.38,1.16,1.16,0,0,0-.2-.32.41.41,0,0,0-.3-.13.77.77,0,0,0-.32.07,1.49,1.49,0,0,0-.31.2.89.89,0,0,0-.23.28.55.55,0,0,0-.1.32.47.47,0,0,0,0,.17l.06.16.06.17a.88.88,0,0,1,0,.17.34.34,0,0,1,0,.14.12.12,0,0,1-.12.06.18.18,0,0,1-.17-.11,2,2,0,0,1-.12-.31c0-.12-.07-.25-.11-.39a2.26,2.26,0,0,0-.15-.39,1.05,1.05,0,0,0-.21-.31.48.48,0,0,0-.33-.12.6.6,0,0,0-.27.07.55.55,0,0,0-.2.17.83.83,0,0,0-.12.25,1.26,1.26,0,0,0,0,.27,3.4,3.4,0,0,0,0,.45,3.15,3.15,0,0,1,0,.44.61.61,0,0,1,0,.14s0,.07-.12.07a.13.13,0,0,1-.1,0l-.07-.07a.54.54,0,0,1-.05-.11l0-.11c0-.15,0-.3,0-.43l0-.37c0-.12,0-.24,0-.36s0-.25,0-.39v0a.13.13,0,0,1,0-.06v-.09l0,0s0,0,0,0h0a.16.16,0,0,1,.14.07.25.25,0,0,1,.05.15.71.71,0,0,1,.16-.15.34.34,0,0,1,.14-.08l.13,0h.18a1.29,1.29,0,0,1,.29,0,.87.87,0,0,1,.24.1.65.65,0,0,1,.2.17l.18.24h0l.06-.06.13-.13.2-.17.24-.17a1.49,1.49,0,0,1,.25-.13.65.65,0,0,1,.26-.06.74.74,0,0,1,.34.08.9.9,0,0,1,.27.21,1.21,1.21,0,0,1,.2.3,2.17,2.17,0,0,1,.15.35c0,.12.06.24.08.35a1.94,1.94,0,0,1,0,.33v.19a1.33,1.33,0,0,1,0,.28.72.72,0,0,1-.08.26.18.18,0,0,1-.16.11l-.07,0a.1.1,0,0,1,0-.05s0,0,0-.06Z"/><path class="cls-1" d="M17.32,46.27a1.79,1.79,0,0,1,.09-.57,1.51,1.51,0,0,1,.25-.47,1.33,1.33,0,0,1,.41-.33,1.25,1.25,0,0,1,.56-.12,1,1,0,0,1,.32.1.76.76,0,0,1,.23.2.84.84,0,0,1,.13.27,1.58,1.58,0,0,1,0,.32.6.6,0,0,1-.12.36,1.15,1.15,0,0,1-.3.28,1.71,1.71,0,0,1-.39.17,1.43,1.43,0,0,1-.39.06H18l-.13,0-.09-.07a.26.26,0,0,1,0-.14.09.09,0,0,1,0-.05l0,0h.12l.21,0a.7.7,0,0,0,.23-.06,1.66,1.66,0,0,0,.31-.14,1,1,0,0,0,.26-.19.33.33,0,0,0,.12-.22.54.54,0,0,0,0-.22.49.49,0,0,0-.11-.2.52.52,0,0,0-.17-.13.35.35,0,0,0-.23,0,.88.88,0,0,0-.36.1,1,1,0,0,0-.27.24,1.11,1.11,0,0,0-.18.32,1.15,1.15,0,0,0-.06.37c0,.09,0,.19,0,.29a1.45,1.45,0,0,0,0,.29,1.07,1.07,0,0,0,.12.27.67.67,0,0,0,.24.23,1.17,1.17,0,0,0,.39.16,2.36,2.36,0,0,0,.59.09l1-.07a.64.64,0,0,1-.23.2,1.08,1.08,0,0,1-.29.13,1.73,1.73,0,0,1-.31.07,1.46,1.46,0,0,1-.29,0,1.83,1.83,0,0,1-.62-.1,1.69,1.69,0,0,1-.5-.31,1.35,1.35,0,0,1-.35-.47A1.45,1.45,0,0,1,17.32,46.27Z"/><path class="cls-1" d="M20.3,47.1l.08,0h.08l.1,0,.1.07.09.07.09,0,.24.1.16.07.17,0H22a1.13,1.13,0,0,0,.32,0,.69.69,0,0,0,.26-.12.3.3,0,0,0,.11-.25.36.36,0,0,0-.09-.26.61.61,0,0,0-.25-.14,1.35,1.35,0,0,0-.36-.07l-.41-.05a2.9,2.9,0,0,1-.41-.06,1.4,1.4,0,0,1-.36-.13.75.75,0,0,1-.25-.25.73.73,0,0,1-.1-.41.51.51,0,0,1,.17-.3,1.08,1.08,0,0,1,.35-.19,1.49,1.49,0,0,1,.43-.07,1.31,1.31,0,0,1,.41.06.69.69,0,0,1,.32.19.46.46,0,0,1,.13.32.56.56,0,0,1,0,.19.31.31,0,0,1-.08.11.19.19,0,0,1-.1,0A.09.09,0,0,1,22,46a.11.11,0,0,1,0-.1.38.38,0,0,1,.06-.18.24.24,0,0,0-.13-.17.81.81,0,0,0-.25-.09,1,1,0,0,0-.3,0,1.33,1.33,0,0,0-.3.06.61.61,0,0,0-.21.12.17.17,0,0,0-.07.17.33.33,0,0,0,.1.26.59.59,0,0,0,.26.14,1.6,1.6,0,0,0,.36.08l.42,0a3,3,0,0,1,.43.06,1,1,0,0,1,.36.12.58.58,0,0,1,.26.23.6.6,0,0,1,.1.37.54.54,0,0,1-.09.31.93.93,0,0,1-.23.21.79.79,0,0,1-.3.12,1.15,1.15,0,0,1-.31,0h-.32l-.34,0-.34,0a1.61,1.61,0,0,1-.33-.12,1,1,0,0,1-.27-.19A.91.91,0,0,1,20.3,47.1Z"/></g></g></svg>